<?xml version="1.0" encoding="utf-8"?>
<!-- Generator: Adobe Illustrator 25.4.1, SVG Export Plug-In . SVG Version: 6.00 Build 0)  -->
<svg version="1.1" id="레이어_1" xmlns="http://www.w3.org/2000/svg" xmlns:xlink="http://www.w3.org/1999/xlink" x="0px"
	 y="0px" viewBox="0 0 200 100" style="enable-background:new 0 0 200 100;" xml:space="preserve">
<style type="text/css">
	.st0{fill:none;stroke:#A1A1A9;stroke-width:6;stroke-miterlimit:10;}
	.st1{fill:none;stroke:#4C0CC2;stroke-width:6;stroke-miterlimit:10;}
</style>
<path class="st0" d="M46,26.5L29.8,41.1c-1.2,1.1-1.9,2.6-1.9,4.2v24c0,3.1,2.5,5.7,5.7,5.7h32.8c3.1,0,5.7-2.5,5.7-5.7v-24
	c0-1.6-0.7-3.2-1.9-4.3L53.6,26.4C51.4,24.4,48.1,24.4,46,26.5z"/>
<path class="st1" d="M145.9,26.5l-16.2,14.6c-1.2,1.1-1.9,2.6-1.9,4.2v24c0,3.1,2.5,5.7,5.7,5.7h32.8c3.1,0,5.7-2.5,5.7-5.7v-24
	c0-1.6-0.7-3.2-1.9-4.3l-16.7-14.7C151.3,24.4,148,24.4,145.9,26.5z"/>
</svg>
